<!--?xml version="1.0" encoding="utf-8"?-->
<!-- Generator: Adobe Illustrator 15.1.0, SVG Export Plug-In . SVG Version: 6.00 Build 0)  -->

<svg version="1.1" id="_x32_" xmlns="http://www.w3.org/2000/svg" xmlns:xlink="http://www.w3.org/1999/xlink" x="0px" y="0px" width="512px" height="512px" viewBox="0 0 512 512" style="width: 256px; height: 256px; opacity: 1;" xml:space="preserve">
<style type="text/css">

	.st0{fill:#4B4B4B;}

</style>
<g>
	<path class="st0" d="M502.844,309.234c-4.141-8.125-9.328-14.781-14.75-20.125c-3.875-3.813-7.859-6.984-11.688-9.594
		c0-8.75,0-25.828,0-53.203c0-21.797-1.391-50.359-7.594-77.672c-3.094-13.656-7.422-27.016-13.547-39.109
		c-6.109-12.063-14.031-22.906-24.453-31.156c-10.125-7.984-22.156-14.25-35.453-19.266c-19.984-7.5-42.844-12.203-66.719-15.094
		c-23.891-2.875-48.766-3.891-72.656-3.906c-31.828,0.016-65.438,1.828-96.094,7.438c-15.328,2.797-29.938,6.563-43.266,11.563
		c-13.297,5.016-25.328,11.281-35.422,19.266c-10.422,8.25-18.375,19.094-24.484,31.156c-9.156,18.125-14.328,39.141-17.359,59.703
		c-2.984,20.578-3.766,40.734-3.766,57.078c0,27.375,0,44.453,0,53.219c-0.266,0.172-0.531,0.344-0.797,0.516
		c-8.047,5.641-16.781,13.766-23.484,25.25C4.578,316.75-0.016,331.516,0,349.734c0,3.719,0.188,7.563,0.578,11.563
		c0.828,8.5,2.531,16.234,5,23.203c8.078,35.125,41.063,87.391,87.188,87.391H419.25c46.141,0,79.156-52.344,87.188-87.484
		c2.438-6.953,4.141-14.641,4.969-23.125c0.391-3.984,0.594-7.828,0.594-11.547C512,333.547,508.391,320.078,502.844,309.234z
		 M495.688,359.75c-0.813,8.391-2.578,15.609-5.047,21.859c-2.156,5.469-4.859,10.203-7.969,14.375
		c-0.438,0.578-0.906,1.125-1.344,1.688c-4.375,3.109-9.047,5.906-14.078,8.328c-23.75,11.406-49.281,12.875-68.891,12.875H113.625
		c-19.609,0-45.125-1.469-68.891-12.875c-5-2.422-9.688-5.203-14.031-8.313c-1.156-1.422-2.266-2.891-3.328-4.469
		c-5.641-8.516-9.703-19.297-11.078-33.469c-0.344-3.5-0.5-6.828-0.5-10.016c0.016-13.875,3.016-24.672,7.422-33.328
		c3.297-6.469,7.406-11.75,11.781-16.047c6.531-6.469,13.641-10.734,19.078-13.344c2.703-1.297,5-2.172,6.563-2.719
		c0.781-0.281,1.391-0.469,1.766-0.578c0.172-0.047,0.328-0.094,0.391-0.125l0.078-0.016l4.063-1.031l1.391-3.984
		c0,0,0.453-1.328,1.313-3.734c2.547-7.203,8.484-24.016,15.328-43.234l-14.891-5.297c-6.859,19.297-12.797,36.156-15.344,43.344
		c-0.672,0.234-1.422,0.531-2.234,0.844c0-9.781,0-24.234,0-44.172c0-21.047,1.391-48.563,7.156-73.906
		c2.891-12.672,6.859-24.781,12.156-35.234c5.281-10.469,11.859-19.203,19.859-25.531c8.344-6.578,18.828-12.156,30.922-16.703
		c18.141-6.828,39.828-11.359,62.797-14.125s47.219-3.781,70.594-3.781c31.203-0.016,63.938,1.813,93.078,7.156
		c14.578,2.656,28.234,6.203,40.344,10.75c12.078,4.547,22.594,10.125,30.906,16.703c8,6.328,14.578,15.063,19.875,25.531
		c7.938,15.672,12.891,35.078,15.688,54.5c2.844,19.422,3.609,38.844,3.609,54.641c0,19.938,0,34.391,0,44.172
		c-0.797-0.313-1.547-0.609-2.219-0.844c-2.391-6.766-7.828-22.109-14.172-40.031l-14.891,5.297
		c4.297,12.078,8.156,22.984,10.953,30.891c1.391,3.938,2.516,7.141,3.313,9.344c0.766,2.219,1.188,3.422,1.188,3.422l1.422,3.969
		l4.031,1.047c0.078,0.016,3.172,0.844,7.703,2.922c3.406,1.563,7.609,3.828,11.953,6.938c6.516,4.672,13.344,11.203,18.547,20.266
		c5.188,9.063,8.875,20.656,8.891,36.031C496.203,352.922,496.031,356.25,495.688,359.75z"></path>
	<polygon class="st0" points="139.547,274.25 234.859,274.25 234.859,233.656 128.266,233.656 	"></polygon>
	<polygon class="st0" points="290.672,274.25 372.438,274.25 383.719,233.656 290.672,233.656 	"></polygon>
	<path class="st0" d="M364.266,108.469c-18.609-6.766-72.75-10.156-108.281-10.156c-35.516,0-89.656,3.391-108.25,10.156
		c-18.625,6.766-32.141,18.609-38.922,35.516c-2.125,5.375-7.688,20.609-14.266,38.906h322.891
		c-6.578-18.297-12.125-33.531-14.281-38.906C396.391,127.078,382.891,115.234,364.266,108.469z"></path>
</g>
</svg>
